<svg width="20" height="20" viewBox="0 0 20 20" fill="none" xmlns="http://www.w3.org/2000/svg">
<path d="M2.43243 0C1.78731 0 1.16861 0.256273 0.712442 0.712443C0.256271 1.16861 0 1.78731 0 2.43243C0 3.07755 0.256271 3.69625 0.712442 4.15242C1.16861 4.60859 1.78731 4.86486 2.43243 4.86486C3.07755 4.86486 3.69625 4.60859 4.15242 4.15242C4.60859 3.69625 4.86486 3.07755 4.86486 2.43243C4.86486 1.78731 4.60859 1.16861 4.15242 0.712443C3.69625 0.256273 3.07755 0 2.43243 0Z" fill="#C7C8CD"/>
<path opacity="0.24" d="M10 0C9.35488 0 8.73618 0.256273 8.28001 0.712443C7.82384 1.16861 7.56757 1.78731 7.56757 2.43243C7.56757 3.07755 7.82384 3.69625 8.28001 4.15242C8.73618 4.60859 9.35488 4.86486 10 4.86486C10.6451 4.86486 11.2638 4.60859 11.72 4.15242C12.1762 3.69625 12.4324 3.07755 12.4324 2.43243C12.4324 1.78731 12.1762 1.16861 11.72 0.712443C11.2638 0.256273 10.6451 0 10 0Z" fill="#C7C8CD"/>
<path d="M17.5676 0C16.9224 0 16.3037 0.256273 15.8476 0.712443C15.3914 1.16861 15.1351 1.78731 15.1351 2.43243C15.1351 3.07755 15.3914 3.69625 15.8476 4.15242C16.3037 4.60859 16.9224 4.86486 17.5676 4.86486C18.2127 4.86486 18.8314 4.60859 19.2876 4.15242C19.7437 3.69625 20 3.07755 20 2.43243C20 1.78731 19.7437 1.16861 19.2876 0.712443C18.8314 0.256273 18.2127 0 17.5676 0Z" fill="#C7C8CD"/>
<path opacity="0.24" d="M2.43243 7.56757C1.78731 7.56757 1.16861 7.82384 0.712442 8.28001C0.256271 8.73618 0 9.35488 0 10C0 10.6451 0.256271 11.2638 0.712442 11.72C1.16861 12.1762 1.78731 12.4324 2.43243 12.4324C3.07755 12.4324 3.69625 12.1762 4.15242 11.72C4.60859 11.2638 4.86486 10.6451 4.86486 10C4.86486 9.35488 4.60859 8.73618 4.15242 8.28001C3.69625 7.82384 3.07755 7.56757 2.43243 7.56757Z" fill="#C7C8CD"/>
<path d="M10 7.56757C9.35488 7.56757 8.73618 7.82384 8.28001 8.28001C7.82384 8.73618 7.56757 9.35488 7.56757 10C7.56757 10.6451 7.82384 11.2638 8.28001 11.72C8.73618 12.1762 9.35488 12.4324 10 12.4324C10.6451 12.4324 11.2638 12.1762 11.72 11.72C12.1762 11.2638 12.4324 10.6451 12.4324 10C12.4324 9.35488 12.1762 8.73618 11.72 8.28001C11.2638 7.82384 10.6451 7.56757 10 7.56757Z" fill="#C7C8CD"/>
<path opacity="0.24" d="M17.5676 7.56757C16.9224 7.56757 16.3037 7.82384 15.8476 8.28001C15.3914 8.73618 15.1351 9.35488 15.1351 10C15.1351 10.6451 15.3914 11.2638 15.8476 11.72C16.3037 12.1762 16.9224 12.4324 17.5676 12.4324C18.2127 12.4324 18.8314 12.1762 19.2876 11.72C19.7437 11.2638 20 10.6451 20 10C20 9.35488 19.7437 8.73618 19.2876 8.28001C18.8314 7.82384 18.2127 7.56757 17.5676 7.56757Z" fill="#C7C8CD"/>
<path d="M2.43243 15.1351C1.78731 15.1351 1.16861 15.3914 0.712442 15.8476C0.256271 16.3037 0 16.9224 0 17.5676C0 18.2127 0.256271 18.8314 0.712442 19.2876C1.16861 19.7437 1.78731 20 2.43243 20C3.07755 20 3.69625 19.7437 4.15242 19.2876C4.60859 18.8314 4.86486 18.2127 4.86486 17.5676C4.86486 16.9224 4.60859 16.3037 4.15242 15.8476C3.69625 15.3914 3.07755 15.1351 2.43243 15.1351Z" fill="#C7C8CD"/>
<path opacity="0.24" d="M10 15.1351C9.35488 15.1351 8.73618 15.3914 8.28001 15.8476C7.82384 16.3037 7.56757 16.9224 7.56757 17.5676C7.56757 18.2127 7.82384 18.8314 8.28001 19.2876C8.73618 19.7437 9.35488 20 10 20C10.6451 20 11.2638 19.7437 11.72 19.2876C12.1762 18.8314 12.4324 18.2127 12.4324 17.5676C12.4324 16.9224 12.1762 16.3037 11.72 15.8476C11.2638 15.3914 10.6451 15.1351 10 15.1351Z" fill="#C7C8CD"/>
<path d="M17.5676 15.1351C16.9224 15.1351 16.3037 15.3914 15.8476 15.8476C15.3914 16.3037 15.1351 16.9224 15.1351 17.5676C15.1351 18.2127 15.3914 18.8314 15.8476 19.2876C16.3037 19.7437 16.9224 20 17.5676 20C18.2127 20 18.8314 19.7437 19.2876 19.2876C19.7437 18.8314 20 18.2127 20 17.5676C20 16.9224 19.7437 16.3037 19.2876 15.8476C18.8314 15.3914 18.2127 15.1351 17.5676 15.1351Z" fill="#C7C8CD"/>
</svg>
