<svg width="20" height="20" viewBox="0 0 20 20" fill="none" xmlns="http://www.w3.org/2000/svg">
<path opacity="0.3" d="M10.2553 0.952259C9.79574 0.952259 9.35663 1.13352 9.03241 1.45775C8.70818 1.78198 8.52692 2.22109 8.52692 2.68062C8.52692 3.14016 8.70818 3.57927 9.03241 3.9035C9.35663 4.22772 9.79574 4.40899 10.2553 4.40899C10.7148 4.40899 11.1539 4.22772 11.4782 3.9035C11.8024 3.57927 11.9836 3.14016 11.9836 2.68062C11.9836 2.22109 11.8024 1.78198 11.4782 1.45775C11.1539 1.13352 10.7148 0.952259 10.2553 0.952259Z" fill="#C7C8CD"/>
<path opacity="0.3" d="M17.3194 8.65969C16.9645 8.65969 16.6224 8.8001 16.3722 9.05285C16.122 9.30304 15.9791 9.64514 15.9791 10C15.9791 10.3549 16.1195 10.697 16.3722 10.9472C16.6224 11.1973 16.9645 11.3403 17.3194 11.3403C17.6742 11.3403 18.0163 11.1999 18.2665 10.9472C18.5167 10.697 18.6597 10.3549 18.6597 10C18.6597 9.64514 18.5193 9.30304 18.2665 9.05285C18.0163 8.80266 17.6742 8.65969 17.3194 8.65969Z" fill="#C7C8CD"/>
<path opacity="0.3" d="M10.2553 15.5885C9.79574 15.5885 9.35663 15.7697 9.03241 16.094C8.70818 16.4182 8.52692 16.8573 8.52692 17.3168C8.52692 17.7764 8.70818 18.2155 9.03241 18.5397C9.35663 18.8639 9.79574 19.0452 10.2553 19.0452C10.7148 19.0452 11.1539 18.8639 11.4782 18.5397C11.8024 18.2155 11.9836 17.7764 11.9836 17.3168C11.9836 16.8573 11.8024 16.4182 11.4782 16.094C11.1539 15.7697 10.7148 15.5885 10.2553 15.5885Z" fill="#C7C8CD"/>
<path opacity="0.3" d="M3.8933 8.78734C4.21497 9.10901 4.39623 9.54557 4.39623 10C4.39623 10.4544 4.21497 10.891 3.8933 11.2127C3.57162 11.5343 3.13762 11.7156 2.68319 11.7156C2.22876 11.7156 1.7922 11.5343 1.47053 11.2127C1.14885 10.891 0.96759 10.4544 0.96759 10C0.96759 9.54557 1.14885 9.10901 1.47053 8.78734C1.7922 8.46566 2.22876 8.28696 2.68319 8.28696C3.13762 8.28696 3.57162 8.46566 3.8933 8.78734Z" fill="#C7C8CD"/>
<path d="M2.68062 5.36125C4.16109 5.36125 5.36125 4.16109 5.36125 2.68062C5.36125 1.20016 4.16109 0 2.68062 0C1.20016 0 0 1.20016 0 2.68062C0 4.16109 1.20016 5.36125 2.68062 5.36125Z" fill="#C7C8CD"/>
<path d="M17.3194 20C18.7998 20 20 18.7998 20 17.3194C20 15.8389 18.7998 14.6388 17.3194 14.6388C15.8389 14.6388 14.6387 15.8389 14.6387 17.3194C14.6387 18.7998 15.8389 20 17.3194 20Z" fill="#C7C8CD"/>
<path d="M20 2.68062C20 1.1999 18.8001 0 17.3194 0C15.8387 0 14.7026 1.14118 14.6439 2.56829C14.6439 2.54787 14.6439 2.52744 14.6439 2.50957C14.6413 2.56574 14.6388 2.6219 14.6388 2.68062C14.6388 2.7036 14.6388 2.72402 14.6388 2.747C14.6388 2.747 14.6388 2.747 14.6388 2.74445C14.529 4.90426 12.1343 6.68113 9.94894 6.68113C9.92852 6.68113 9.91575 6.68113 9.90809 6.68624C8.11846 6.73475 6.68113 8.1976 6.68113 10C6.68113 10.0945 6.68879 10.1864 6.6939 10.2757H6.67858C6.68369 10.4136 6.67347 10.5106 6.67347 10.6382C6.67347 12.867 4.81746 14.5928 2.60148 14.6388C2.60148 14.6388 2.60148 14.6388 2.60148 14.6413C1.15905 14.6847 0 15.8642 0 17.3194C0 18.7746 1.1999 20 2.68062 20C4.16135 20 5.33061 18.8282 5.35869 17.373C5.42252 15.1723 7.28364 13.3189 9.49962 13.3189C9.5711 13.3189 9.87746 13.3163 9.94639 13.3189C9.96426 13.3189 9.97958 13.3189 9.99745 13.3189C11.8305 13.3189 13.3163 11.833 13.3163 10C13.3163 9.97702 13.3138 9.95405 13.3138 9.93107H13.3163C13.3163 9.6962 13.2984 9.57621 13.2984 9.44856C13.2984 7.19173 15.134 5.40209 17.4036 5.35869C18.8461 5.31274 20 4.13327 20 2.68318V2.68062ZM14.6413 2.74955C14.6413 2.74955 14.6413 2.75211 14.6413 2.75466C14.6413 2.75466 14.6413 2.75211 14.6413 2.74955Z" fill="#C7C8CD"/>
</svg>
